<svg xmlns="http://www.w3.org/2000/svg" viewBox="0 0 30 30"><path d="M19.6 25.37H15v2.21a.49.49 0 0 1 0 .12h-2.3v-4.62H15v-2.31h4.6v-2.3h8.08v2.3H30v4.61h-2.3v2.32h-1.15V30h-2.31v-.08-2.13a.25.25 0 0 1 0-.08h1.13v-2.3h-1.13V27.63a.34.34 0 0 0 0 .1h-2.31V30h-2.31v-.13-4.37a.62.62 0 0 0 0-.13h2.33v-2.18-.11h2.29v-2.3h-2.3V23a.19.19 0 0 0 0 .08h-2.32v2.19a.34.34 0 0 1-.02.1zM15 9.23h2.3v3.46h5.77v2.32h-2.3v2.3h-3.46V15H15v2.3H9.24V15H6.92v2.3H2.3v-2.18a.37.37 0 0 0 0-.11h2.31V12.7H15V9.34a.45.45 0 0 1 0-.11zM30 10.38H19.62V0H30zm-2.31-8.07h-5.76v5.76h5.76zM0 30V19.61h10.27c.09 0 .12 0 .12.12V30zm8.07-8.07H2.31v5.76h5.76zM0 10.37V0h10.38v10.37zm8.07-8.06H2.31v5.76h5.76zM15 9.23h-2.3V4.61H15V2.39v-.1h2.3v4.63H15v2.31zM23.07 15h2.31v-2.3h2.31V15H30v2.3h-6.92v-2.19-.1zM15 2.29h-2.3V0H15v2.29zM2.29 15H0v-2.3h2.3v2.23a.25.25 0 0 1 0 .08zM15 20.77h-2.3v-2.3H15v2.3z"/><path d="M15 27.71h2.3V30H15v-2.29zM27.7 27.7H30V30h-2.3v-2.21a.28.28 0 0 1 0-.09zM23.08 6.91V3.46h3.46v3.45zM6.92 26.54H3.47v-3.46h3.45zM6.92 6.92H3.47V3.47h3.45z"/></svg>